<?xml version="1.0" encoding="utf-8"?>
<!-- Generator: Adobe Illustrator 22.1.0, SVG Export Plug-In . SVG Version: 6.00 Build 0)  -->
<svg version="1.1" id="Layer_1" xmlns="http://www.w3.org/2000/svg" xmlns:xlink="http://www.w3.org/1999/xlink" x="0px" y="0px"
	 viewBox="0 0 30.4 30.2" style="enable-background:new 0 0 30.4 30.2;" xml:space="preserve">
<style type="text/css">
	.st0{fill:none;stroke:#FFFFFF;stroke-width:1.25;stroke-linecap:round;stroke-linejoin:round;stroke-miterlimit:10;}
</style>
<path class="st0" d="M12.4,29.2c-0.4,0-0.8-0.3-0.8-0.8V15.9c0-0.4-0.3-0.8-0.8-0.8H8.7c-0.4,0-0.8-0.3-0.8-0.8v-3
	c0-0.4,0.3-0.8,0.8-0.8h2c0.4,0,0.8-0.3,0.8-0.8V5.2c-0.1-2.3,2.4-4.1,4.4-4.2c1.5,0,4.4,0,5.8,0c0.4,0,0.8,0.4,0.8,0.8v2.9
	c0,0.4-0.3,0.8-0.8,0.8h-2.3c-1.3,0-2.3,1-2.3,2.3v2c0,0.4,0.3,0.8,0.8,0.8h3c0.4,0,0.8,0.3,0.8,0.8v3.1c0,0.4-0.3,0.8-0.8,0.8h-2.8
	c-0.4,0-0.8,0.3-0.8,0.8v12.4"/>
</svg>
